<?xml version="1.0" encoding="UTF-8" standalone="no"?>
<!-- Created with Inkscape (http://www.inkscape.org/) -->

<svg
   xmlns:dc="http://purl.org/dc/elements/1.1/"
   xmlns:cc="http://creativecommons.org/ns#"
   xmlns:rdf="http://www.w3.org/1999/02/22-rdf-syntax-ns#"
   xmlns:svg="http://www.w3.org/2000/svg"
   xmlns="http://www.w3.org/2000/svg"
   xmlns:sodipodi="http://sodipodi.sourceforge.net/DTD/sodipodi-0.dtd"
   xmlns:inkscape="http://www.inkscape.org/namespaces/inkscape"
   width="210mm"
   height="297mm"
   viewBox="0 0 744.09448819 1052.3622047"
   id="svg2"
   version="1.1"
   inkscape:version="0.91 r13725"
   sodipodi:docname="drawing.svg">
  <defs
     id="defs4" />
  <sodipodi:namedview
     id="base"
     pagecolor="#ffffff"
     bordercolor="#666666"
     borderopacity="1.0"
     inkscape:pageopacity="0.0"
     inkscape:pageshadow="2"
     inkscape:zoom="0.7"
     inkscape:cx="532.37162"
     inkscape:cy="521.25433"
     inkscape:document-units="px"
     inkscape:current-layer="layer1"
     showgrid="false"
     inkscape:window-width="1536"
     inkscape:window-height="801"
     inkscape:window-x="-8"
     inkscape:window-y="-8"
     inkscape:window-maximized="1" />
  <metadata
     id="metadata7">
    <rdf:RDF>
      <cc:Work
         rdf:about="">
        <dc:format>image/svg+xml</dc:format>
        <dc:type
           rdf:resource="http://purl.org/dc/dcmitype/StillImage" />
        <dc:title></dc:title>
      </cc:Work>
    </rdf:RDF>
  </metadata>
  <g
     inkscape:label="Layer 1"
     inkscape:groupmode="layer"
     id="layer1">
    <path
       style="fill:#000000"
       d="m 668.43816,797.21514 c -0.64943,0.53891 -2.25008,2.84889 -3.557,5.13327 -2.78323,4.86453 -3.23892,10.09883 -0.99311,11.4069 1.04133,0.60652 0.11319,0.80568 -3.75461,0.80568 -3.8678,0 -4.79594,-0.19916 -3.75461,-0.80568 2.29537,-1.33691 1.78664,-6.54385 -1.14274,-11.69712 -1.38929,-2.44402 -3.07886,-4.87698 -3.75461,-5.40659 -1.00379,-0.78673 -0.36084,-0.96529 3.51408,-0.97594 2.82093,-0.008 4.32262,0.25333 3.70607,0.64432 -0.82498,0.52322 -0.67188,1.40784 0.75037,4.33533 0.98284,2.02289 2.04274,3.67799 2.35536,3.67799 0.83851,0 3.85919,-5.12573 3.85919,-6.54859 0,-0.67326 -0.44463,-1.40352 -0.98806,-1.6228 -0.54343,-0.21928 0.34582,-0.42677 1.97611,-0.46109 3.29608,-0.0694 3.49171,0.0967 1.78356,1.51432 z m -22.02698,17.38183 c -2.63882,-0.008 -3.67897,-0.25516 -2.96765,-0.70561 0.72484,-0.45908 0.92016,-1.39014 0.57774,-2.75445 -0.45862,-1.82714 -0.90862,-2.06095 -3.967,-2.06095 -2.8886,0 -3.52364,0.28263 -3.90409,1.73737 -0.24985,0.95555 -0.0703,2.2005 0.39981,2.76655 0.67172,0.80933 0.30622,1.02919 -1.71076,1.02919 -2.29331,0 -2.45006,-0.13773 -1.48002,-1.30084 0.59662,-0.71546 2.5076,-4.84549 4.24658,-9.17784 1.73897,-4.33235 3.47953,-7.92645 3.8678,-7.98687 0.38834,-0.0605 2.57226,4.06959 4.85317,9.17783 l 4.14714,9.28772 -4.06272,-0.0121 z m -6.15962,-12.17089 c -0.62429,-0.73732 -2.25055,2.67716 -2.25055,4.72523 0,1.11591 3.19964,1.62329 4.16279,0.66012 0.48036,-0.48031 -0.79123,-4.06145 -1.91224,-5.38535 z m -6.63585,-4.41633 c -1.66436,3.04811 -4.79492,10.34228 -5.85198,13.63515 -0.52335,1.6303 -1.19452,2.96417 -1.49149,2.96417 -0.29697,0 -1.4254,-2.47581 -2.50768,-5.50181 -1.0822,-3.02601 -2.32335,-5.48482 -2.7581,-5.46404 -0.43474,0.0208 -1.41963,1.69627 -2.18866,3.72331 -3.45732,9.11327 -3.61786,9.10626 -6.10958,-0.26668 -0.92458,-3.47795 -2.19237,-7.35638 -2.81738,-8.61872 -0.62492,-1.26233 -1.13626,-2.41836 -1.13626,-2.56894 0,-0.15058 1.46635,-0.27378 3.25853,-0.27378 2.63273,0 3.08992,0.20328 2.38018,1.05839 -0.65622,0.79079 -0.46241,2.29007 0.76673,5.92982 0.90482,2.67929 1.91517,4.70453 2.24526,4.50053 0.33009,-0.20399 1.22013,-1.99424 1.97785,-3.97832 1.27427,-3.33679 1.2817,-3.75385 0.099,-5.55893 l -1.2787,-1.95149 4.16809,0.0121 c 2.77817,0.008 3.79334,0.24923 3.04447,0.72323 -0.96212,0.60895 -0.92142,1.45814 0.28362,5.90971 0.77392,2.85923 1.72419,5.00269 2.11159,4.76324 0.38747,-0.23945 0.70444,-0.86427 0.70444,-1.38848 0,-0.52421 0.7114,-2.28042 1.58089,-3.9027 1.94473,-3.62851 1.99706,-5.102 0.19761,-5.57223 -0.7608,-0.19882 -0.049,-0.40275 1.58089,-0.45318 1.63029,-0.0504 2.93168,-0.003 2.89192,0.10592 -0.0395,0.10868 -0.55782,1.08686 -1.15128,2.17372 z m -26.82348,10.85304 c -1.77795,4.08975 -5.32554,5.74397 -12.26564,5.71929 -4.41226,-0.0157 -5.57461,-0.22712 -4.54505,-0.82677 1.17001,-0.68146 1.38327,-2.01223 1.38327,-8.63157 0,-6.61933 -0.21326,-7.9501 -1.38327,-8.63157 -1.03161,-0.60086 0.0934,-0.81179 4.42561,-0.82972 7.18546,-0.0297 10.92844,1.5387 12.46855,5.22467 1.34731,3.22449 1.33166,4.72052 -0.0835,7.97567 z m -4.40483,-7.10591 c -1.00719,-3.62666 -4.1066,-6.01326 -5.88865,-4.5343 -1.53742,1.27595 -1.67061,13.25398 -0.17019,15.30594 1.55844,2.1313 5.04399,0.48832 6.0005,-2.8285 1.01296,-3.51264 1.02007,-4.48002 0.0585,-7.94314 z m -19.21174,12.84009 c -2.63882,-0.008 -3.67897,-0.25516 -2.96765,-0.70561 0.72484,-0.45908 0.92016,-1.39014 0.57774,-2.75445 -0.45862,-1.82714 -0.90862,-2.06095 -3.967,-2.06095 -2.8886,0 -3.52364,0.28263 -3.90409,1.73737 -0.24985,0.95555 -0.0703,2.2005 0.39981,2.76655 0.67172,0.80933 0.30622,1.02919 -1.71076,1.02919 -2.18139,0 -2.41891,-0.1759 -1.58847,-1.17652 0.53702,-0.64709 2.45828,-4.77009 4.26934,-9.16222 1.81115,-4.39213 3.60048,-8.04217 3.97625,-8.1112 0.37586,-0.069 2.5495,4.05398 4.83041,9.16222 l 4.14714,9.28772 -4.06272,-0.0121 z m -5.5969,-11.03413 -1.08291,-1.95611 -1.1501,2.74656 c -1.3677,3.26624 -1.12337,3.93223 1.44249,3.93223 2.21877,0 2.49416,-1.64534 0.79052,-4.72268 z m -9.53766,5.08763 c -1.83849,5.19222 -6.23715,7.4078 -11.7079,5.89725 -4.30871,-1.18969 -6.86192,-4.74815 -6.86192,-9.56367 0,-3.46168 0.34448,-4.31509 2.68751,-6.65813 2.34303,-2.34303 3.19648,-2.68751 6.65815,-2.68751 3.10036,0 4.49438,0.44072 6.36031,2.01083 2.15965,1.81721 2.74837,2.88612 3.68141,6.68406 0.16022,0.65211 -0.20765,2.59484 -0.81756,4.31717 z m -5.12041,-9.42386 c -1.39862,-3.67858 -6.10705,-3.68642 -7.78082,-0.013 -1.2172,2.6715 -1.16416,9.73776 0.0918,12.23364 1.39292,2.768 5.46774,3.14064 7.20593,0.65898 1.4356,-2.04957 1.71976,-9.62685 0.48304,-12.87967 z m -17.68247,15.38246 c -2.38469,0 -2.98488,-0.43365 -4.73634,-3.4224 -1.10315,-1.88233 -2.55978,-3.88223 -3.23695,-4.44423 -1.0841,-0.89976 -1.2312,-0.59003 -1.2312,2.59268 0,2.6085 0.38503,3.83875 1.38328,4.42019 1.05303,0.61335 0.26053,0.81142 -3.31987,0.82972 -3.65801,0.0187 -4.49233,-0.18675 -3.7546,-0.92449 1.32186,-1.32183 1.2885,-15.77368 -0.0395,-17.14624 -0.8057,-0.83269 0.3014,-0.97128 5.99821,-0.75085 6.24032,0.24147 7.14964,0.472 8.51561,2.15893 1.77471,2.19169 1.36818,4.5656 -1.11864,6.53183 l -1.6525,1.30658 2.32952,3.4211 c 1.28123,1.8816 2.614,3.87246 2.96163,4.42414 0.46566,0.73884 -0.0872,1.00304 -2.09862,1.00304 z m -5.67104,-17.30024 c -2.02947,-2.14 -3.6415,-0.42502 -3.37947,3.59523 0.27681,4.24615 1.40359,5.03348 3.78931,2.64776 1.76396,-1.76396 1.60974,-4.11351 -0.40984,-6.24299 z m 4.37439,-433.06633 c -0.84712,2.81337 -3.88716,7.71793 -4.78384,7.71793 -0.38463,0 0.089,-1.33388 1.05247,-2.96417 1.44533,-2.44551 1.75186,-4.16038 1.75186,-9.80071 0,-3.7601 0.22307,-6.70067 0.49561,-6.5346 0.58469,0.35619 2.3013,6.89061 2.20305,8.38567 -0.0371,0.56829 -0.361,2.00644 -0.71915,3.19588 z m -7.92238,-5.71962 c -0.90356,0 -3.12684,7.82821 -2.6076,9.18135 0.25824,0.67308 -0.10797,1.09442 -0.9513,1.09442 -1.18361,0 -1.28637,-0.45975 -0.75092,-3.35939 0.34124,-1.84766 0.68555,-4.35315 0.76507,-5.56776 0.0796,-1.21459 0.87344,-2.71881 1.76419,-3.34269 1.45932,-1.02213 1.65994,-0.97962 2.02852,0.42987 0.22496,0.86031 0.11335,1.5642 -0.24796,1.5642 z m -9.35222,-2.37133 c -1.81304,3.0787 -2.09468,4.44119 -2.09468,10.13268 0,5.83519 -0.10726,6.32476 -0.9524,4.34744 -1.29174,-3.0222 -1.26147,-9.23014 0.0601,-12.33179 0.59608,-1.39895 2.01888,-3.40588 3.16178,-4.45984 2.49733,-2.303 2.49069,-2.21478 -0.17477,2.31151 z m -7.23256,13.83277 c -0.43475,0.26868 -0.79045,-0.066 -0.79045,-0.7438 0,-0.67777 0.3557,-1.23231 0.79045,-1.23231 0.43474,0 0.79044,0.3347 0.79044,0.74379 0,0.40908 -0.3557,0.96363 -0.79044,1.23232 z m 0.59283,-10.61733 c -0.10868,0.0295 -1.70957,0.11844 -3.55763,0.19761 -2.23798,0.0959 -3.35978,-0.18598 -3.35939,-0.84411 4e-4,-0.64398 1.23934,-0.98806 3.55763,-0.98806 1.95635,0 3.557,0.3557 3.557,0.79045 0,0.43474 -0.0889,0.81459 -0.19761,0.84411 z m -4.34744,10.61222 c -0.7608,-0.31321 -1.99722,-0.74623 -2.74766,-0.96227 -1.0886,-0.31339 -1.19697,-0.7057 -0.53608,-1.94057 0.79985,-1.49442 0.89454,-1.47639 2.74766,0.52319 2.27103,2.45041 2.43077,3.15965 0.53608,2.37965 z m -18.21001,-7.10889 c -1.21128,2.60847 -2.58539,5.63191 -3.05357,6.71877 -0.81455,1.89082 -0.95952,1.73846 -3.35796,-3.52987 -3.82156,-8.39434 -3.83223,-8.65891 -0.44083,-10.96341 l 2.935,-1.99437 3.06044,2.02531 c 1.68325,1.11393 3.06012,2.24482 3.05981,2.51312 -3.2e-4,0.26828 -0.99162,2.62199 -2.20289,5.23045 z m -4.12003,-11.46144 c -0.51482,0 -0.79045,-11.9884 -0.79045,-34.38431 l 0,-34.38432 -64.8037,0 -64.80371,0 -0.21031,21.5396 -0.21032,21.5396 -43.68514,0.20431 -43.68514,0.20431 0.21072,20.74245 0.21072,20.74246 43.67203,0.20431 43.67204,0.2043 0,22.3937 0,22.3937 -20.94677,10.15736 c -11.52072,5.58655 -20.94677,10.37341 -20.94677,10.63745 0,0.26406 19.47457,10.09766 43.27681,21.85244 l 43.27681,21.37234 -22.33004,11.1994 -22.33004,11.19939 0,21.73448 0,21.73448 -43.86965,0 -43.86964,0 0,40.67205 0,40.67205 2.56894,0.3933 c 1.41292,0.21632 4.82678,0.60972 7.58636,0.87424 7.214,0.69148 17.55398,3.83661 26.16101,7.95741 12.9799,6.21442 23.16125,14.48648 31.59624,25.67105 37.90809,50.26514 12.82928,120.92897 -48.70953,137.24738 -6.82026,1.80855 -9.29374,2.05513 -20.78391,2.07195 -14.56532,0.0213 -19.92903,-0.86798 -31.54025,-5.22933 -29.08193,-10.92361 -50.70132,-36.56615 -55.87953,-66.27814 -1.76256,-10.1134 -1.16334,-27.72717 1.2463,-36.63415 4.50123,-16.63833 15.19122,-33.79109 27.62032,-44.31853 14.62312,-12.38579 32.76128,-19.74987 52.42722,-21.28542 l 6.91639,-0.54004 0,-40.63691 0,-40.63691 -43.86965,0 -43.86964,0 0,-32.3859 0,-32.38589 -10.8686,-0.21992 -10.86861,-0.21992 -0.20637,-32.60581 c -0.13663,-21.58482 0.0638,-32.60582 0.59283,-32.60582 0.5255,0 0.79921,10.96801 0.79921,32.02589 l 0,32.0259 21.14438,-0.21053 21.14437,-0.21052 0.20658,-31.81537 c 0.13337,-20.5402 0.48663,-31.81537 0.99683,-31.81537 0.51725,0 0.71894,11.26341 0.58386,32.60582 l -0.20638,32.60581 -10.8686,0.21992 -10.86861,0.21992 0,31.59893 0,31.59894 86.75123,-0.2011 86.75123,-0.20109 0.20998,-21.3551 0.20997,-21.3551 21.13202,-10.58832 21.13201,-10.58832 -43.27681,-21.37474 c -23.80225,-11.7561 -43.27681,-21.58592 -43.27681,-21.84404 0,-0.25811 9.48438,-5.07144 21.0764,-10.69629 11.59202,-5.62484 21.55162,-10.7022 22.13243,-11.28302 0.82677,-0.82677 1.05603,-5.50538 1.05603,-21.55111 l 0,-20.49509 -86.94884,0 -86.94884,0 0,42.28876 0,42.28875 8.29966,0 c 5.00615,0 8.29966,0.31367 8.29966,0.79045 0,0.503 -6.32355,0.79044 -17.38976,0.79044 -11.06622,0 -17.38977,-0.28744 -17.38977,-0.79044 0,-0.47678 3.29352,-0.79045 8.29966,-0.79045 l 8.29966,0 0,-43.0792 0,-43.07919 43.86964,0 43.86965,0 0,-20.94007 0,-20.94008 -43.67203,-0.2043 -43.67204,-0.20431 -0.2043,-43.67203 -0.2043,-43.67203 88.12849,0 88.1285,0 0.21031,21.5396 0.21032,21.5396 65.40924,0.20218 65.40924,0.20218 0,34.77496 c 0,22.65635 -0.27547,34.77497 -0.79044,34.77497 z m -218.55777,-112.24305 -86.55362,0 0,42.68398 0,42.68398 86.55362,0 86.55362,0 0,-42.68398 0,-42.68398 -86.55362,0 z m 84.14991,460.94405 c -1.03263,-8.23535 -3.97171,-17.63401 -8.06944,-25.80462 -9.14548,-18.2355 -21.22747,-30.38166 -38.9296,-39.13633 -10.55922,-5.22212 -17.90195,-7.48837 -28.41039,-8.76858 -6.46218,-0.78726 -7.15705,-0.73988 -8.10206,0.55248 -0.98899,1.35254 -1.03364,1.35082 -1.03364,-0.0398 0,-1.34524 -0.55493,-1.4144 -7.45602,-0.9293 -36.26319,2.54905 -67.38106,27.65577 -77.52536,62.54953 -3.83623,13.19565 -3.83528,32.57005 0.002,45.84575 14.8046,51.21545 71.43482,76.99912 120.46148,54.84594 13.17347,-5.95256 26.90418,-17.74647 35.23183,-30.26217 11.89159,-17.87193 16.50697,-37.51116 13.83094,-58.85289 z m 69.78367,122.60673 C 417.0932,834.343 407.29635,843.8555 406.9548,843.8555 c -0.34156,0 8.90907,-9.41165 20.55693,-20.91476 l 21.17794,-20.91476 -21.35847,-0.032 -21.35847,-0.032 -7.09751,7.17163 c -3.90363,3.94439 -13.85581,13.5951 -22.11595,21.446 -12.97794,12.33497 -12.14563,11.41268 6.12594,-6.78818 11.6294,-11.58442 21.14437,-21.23512 21.14437,-21.44601 0,-0.21089 -9.45325,-0.38344 -21.00722,-0.38344 l -21.00723,0 -21.87436,21.50912 -21.87436,21.50911 21.33649,-21.50911 21.33651,-21.50912 -21.34209,0 -21.3421,0 -20.93558,20.94677 c -11.51457,11.52072 -21.26483,20.94676 -21.66724,20.94676 -0.40243,0 8.84325,-9.40783 20.54594,-20.90629 l 21.27763,-20.90629 -21.36319,-0.0405 -21.36319,-0.0405 -5.51191,5.59316 c -3.03155,3.07624 -12.9816,12.74637 -22.11123,21.48919 l -16.59933,15.89602 21.3365,-21.48919 21.3365,-21.48918 -21.22426,0 -21.22426,0 -21.84945,21.51444 -21.84945,21.51445 21.3365,-21.51445 21.3365,-21.51444 -21.33121,0 -21.33119,0 -21.74251,21.5396 -21.7425,21.5396 21.3365,-21.5396 21.33649,-21.5396 -21.3443,0 -21.3443,0 -15.01064,15.07169 c -8.25585,8.28943 -18.21193,17.92859 -22.12463,21.42036 -3.91269,3.49178 2.66775,-3.28511 14.62322,-15.05976 l 21.73721,-21.40844 -21.45504,-0.0119 c -18.82789,-0.0104 -21.513769,-0.16502 -21.934819,-1.26224 -0.85171,-2.21952 -0.55115,-68.30874 0.31066,-68.30874 0.514709,0 0.790439,11.85666 0.790439,33.98909 l 0,33.98909 174.68813,0 c 96.07847,0 174.68813,0.26925 174.68813,0.59833 0,0.32907 -9.5174,10.11081 -21.14977,21.73721 z m 6.23557,-373.72098 c -0.81215,0.25777 -2.11926,1.17876 -2.9047,2.04666 -1.34621,1.48754 -1.35291,1.73561 -0.11704,4.32727 0.72107,1.51209 1.69348,2.74926 2.16092,2.74926 0.46744,0 0.63005,0.3557 0.36136,0.79045 -0.98882,1.59993 -2.82755,0.71616 -4.11141,-1.97611 -1.61433,-3.38529 -2.32483,-3.48102 -3.0006,-0.40429 -0.51114,2.32719 -1.69506,3.71736 -2.48938,2.92304 -0.22336,-0.22336 0.51171,-3.77508 1.63348,-7.89272 1.12177,-4.11765 2.03958,-8.23891 2.03958,-9.15838 0,-0.95904 0.50548,-1.67176 1.18566,-1.67176 1.48258,0 1.47837,0.61836 -0.0443,6.49451 -0.67649,2.61063 -1.08649,4.89008 -0.91112,5.06545 0.59727,0.59726 4.52943,-2.98849 4.07807,-3.71881 -0.24717,-0.39993 0.46084,-0.72715 1.57336,-0.72715 2.38293,0 2.61754,0.49514 0.54612,1.15258 z m -18.34777,192.70383 c -1.2939,2.22148 -5.09131,3.75459 -9.29987,3.75459 l -3.90859,0 1.518,-4.87735 c 0.83491,-2.68254 1.58659,-5.70599 1.67041,-6.71878 0.12171,-1.47059 0.6147,-1.84142 2.44811,-1.84142 1.71689,0 2.10318,0.24913 1.53209,0.98806 -0.68207,0.88252 -3.38216,9.75843 -3.38216,11.11807 0,1.45555 4.00509,0.32789 5.47574,-1.54173 2.1207,-2.69604 2.27401,-8.53466 0.25498,-9.71064 -1.2567,-0.73196 -1.23175,-0.80789 0.27271,-0.82972 3.52495,-0.0511 5.62244,5.87512 3.41858,9.65892 z m -13.82994,-8.70028 c -0.763,0.763 -3.3479,11.54955 -2.8799,12.01756 0.24052,0.24052 -0.62672,0.43731 -1.92721,0.43731 l -2.36453,0 1.85818,-5.69979 c 1.02198,-3.13488 1.6822,-6.15833 1.46715,-6.71877 -0.26504,-0.69066 0.36504,-1.01899 1.95549,-1.01899 2.38376,0 2.70602,0.16748 1.89082,0.98268 z m -9.34383,9.25133 c -2.14424,5.93532 -12.33289,4.53016 -12.33289,-1.70089 0,-2.99571 1.93785,-6.66141 4.15801,-7.86543 2.23155,-1.21018 9.29968,-1.45234 9.22398,-0.316 -0.0306,0.45869 -0.3265,1.52633 -0.65765,2.37254 -0.57508,1.46953 -0.62241,1.46084 -1.05506,-0.19362 -1.09614,-4.19162 -6.23368,-2.2603 -7.78804,2.92769 -1.13416,3.78553 -0.45444,6.91551 1.64663,7.58237 2.20143,0.69871 3.02684,-0.0283 3.61959,-3.18784 0.41591,-2.21703 0.87353,-2.73883 2.40194,-2.73883 1.03848,0 1.86108,0.0889 1.82801,0.19761 -0.033,0.10869 -0.5031,1.42376 -1.04452,2.9224 z m -15.61867,-5.49134 c -0.83334,2.39109 -1.59097,5.32491 -1.68363,6.51959 -0.13672,1.76271 -0.5521,2.17245 -2.20366,2.17372 l -2.03517,0.002 1.85818,-5.69979 c 1.02198,-3.13488 1.6822,-6.15833 1.46715,-6.71877 -0.26504,-0.69066 0.36504,-1.01899 1.95549,-1.01899 1.29059,0 2.30384,0.0889 2.25166,0.19761 -0.0522,0.10869 -0.77669,2.15396 -1.61002,4.54506 z m -8.22098,0.51239 c -2.03048,2.03049 -2.05266,2.15917 -0.88467,5.1326 1.14096,2.90459 1.12482,3.04989 -0.33883,3.04989 -0.95705,0 -1.83654,-0.82008 -2.33119,-2.17372 -0.43689,-1.19555 -0.98555,-2.70727 -1.21926,-3.35939 -0.36436,-1.01665 -0.53054,-0.99757 -1.16579,0.13382 -0.40747,0.72571 -0.81684,2.23744 -0.90969,3.35939 -0.13953,1.68591 -0.56721,2.0399 -2.46454,2.0399 -1.71689,0 -2.10318,-0.24912 -1.53209,-0.98805 1.16293,-1.50469 3.53341,-10.77485 2.98298,-11.66545 -0.29806,-0.48229 1.19592,-0.78405 3.88172,-0.78405 3.56215,0 4.52262,0.29213 5.21518,1.58618 0.69941,1.30687 0.48216,1.95291 -1.23382,3.66888 z m -2.91187,-4.311 c -0.83875,-0.16273 -1.42256,0.56538 -1.78823,2.23024 -0.72027,3.2794 0.17348,3.98925 2.07289,1.64632 1.70749,-2.1062 1.6044,-3.51004 -0.28466,-3.87656 z m -57.26621,253.77653 c -0.30657,1.1731 -1.28342,1.37379 -6.42946,1.32083 -3.3374,-0.034 -5.62336,-0.24179 -5.07993,-0.46106 1.31762,-0.53165 1.35143,-11.44404 0.0395,-12.75596 -0.73775,-0.73774 -0.18928,-0.94853 2.46811,-0.94853 2.85047,0 3.26337,0.1847 2.49169,1.11452 -0.56551,0.68139 -0.83351,3.21562 -0.68962,6.52116 0.2256,5.18264 0.32162,5.41661 2.31736,5.6479 1.49512,0.17326 2.5535,-0.35815 3.75461,-1.88505 1.59358,-2.02595 1.92427,-1.60188 1.12772,1.44619 z m -14.20661,0.39522 c -0.27356,0.67797 -2.30072,0.96846 -6.45876,0.92561 -3.33304,-0.034 -5.61545,-0.24179 -5.07202,-0.46106 1.31763,-0.53165 1.35144,-11.44404 0.0395,-12.75596 -0.73775,-0.73774 0.404,-0.94853 5.13788,-0.94853 5.96522,0 6.08642,0.0394 6.08642,1.97611 l 0,1.97611 -1.62949,-1.62949 c -2.44078,-2.44078 -5.03058,-1.74596 -5.33698,1.43188 -0.27846,2.88814 1.53495,3.61676 2.95094,1.18566 0.63714,-1.09391 0.81071,-0.66221 0.82972,2.06368 l 0.024,3.44696 -1.52217,-1.86607 c -1.33581,-1.63761 -1.58538,-1.70376 -2.03862,-0.54028 -1.7505,4.49371 2.08911,7.05111 5.61425,3.73947 1.83758,-1.72636 2.41337,-1.11679 1.37526,1.45591 z m -14.23353,-2.35473 c -0.73343,1.82292 -4.85974,3.34279 -9.07513,3.34279 -3.22744,0 -3.93878,-0.21081 -3.20103,-0.94853 0.54613,-0.54612 0.94853,-3.16179 0.94853,-6.16547 0,-3.00369 -0.4024,-5.61934 -0.94853,-6.16547 -0.73775,-0.73774 -0.14917,-0.94853 2.6486,-0.94853 4.51567,0 8.3773,1.31411 9.38284,3.19295 0.8048,1.5038 0.94621,5.94877 0.24472,7.69226 z m -4.7075,-9.07897 c -2.93407,-2.14545 -3.45835,-1.33247 -3.45835,5.36273 0,6.14219 0.0651,6.36921 1.75871,6.12591 0.96729,-0.13888 2.22618,-1.1418 2.79752,-2.22866 1.34313,-2.55504 0.70443,-7.94211 -1.09788,-9.25998 z m 3.27049,-654.72134 c -0.64658,0.53661 -1.68003,0.78209 -2.29654,0.54551 -0.96186,-0.36909 -0.9485,-1.11476 0.0941,-5.25385 1.24829,-4.95547 1.03712,-6.31305 -0.78998,-5.07889 -0.57443,0.38801 -0.36577,0.083 0.46368,-0.6778 3.253,-2.98376 4.32551,-0.89756 2.57279,5.00449 -1.51106,5.08832 -1.50937,4.95102 -0.0541,4.3926 1.50737,-0.57843 1.51115,-0.17785 0.01,1.06794 z m -7.25234,-2.56059 c -1.45723,4.11679 -3.05437,4.5203 -2.34648,0.59283 0.27426,-1.5216 0.73201,-4.0668 1.01723,-5.65601 0.42122,-2.34693 0.30991,-2.77125 -0.59283,-2.25998 -0.70606,0.39989 -0.63458,0.12231 0.19601,-0.76108 2.94391,-3.13106 3.97936,1.71854 1.72607,8.08424 z m -6.68337,-0.5728 c -1.23646,3.35303 -3.07784,5.1641 -3.06035,3.01 0.005,-0.57966 0.54545,-2.82393 1.20165,-4.98727 0.6562,-2.16333 1.03267,-4.35141 0.83659,-4.86238 -0.19609,-0.51098 0.32738,-1.10789 1.16326,-1.32648 1.29243,-0.33798 1.49116,-0.0163 1.32857,2.15078 -0.10515,1.40152 -0.76652,4.10843 -1.46972,6.01535 z m -1.0846,667.75126 c -1.16866,1.38889 -2.80462,2.52523 -3.63545,2.52523 -1.46379,0 -1.46161,-0.049 0.0703,-1.58089 1.74183,-1.74182 2.12358,-6.37413 0.81,-9.8291 -0.94848,-2.4947 -4.29495,-2.79674 -5.52486,-0.49864 -1.43305,2.67767 -0.99817,8.56695 0.76263,10.32774 1.42754,1.42754 1.44671,1.57844 0.19761,1.55575 -2.90344,-0.053 -5.73072,-3.74944 -5.73072,-7.49292 0,-1.25484 0.92254,-3.01143 2.31053,-4.39941 4.41373,-4.41374 11.43541,-2.11984 12.41782,4.05675 0.36332,2.28423 0.0493,3.28297 -1.67783,5.33549 z m -17.83271,2.46278 c -1.93461,-0.034 -3.07285,-0.24179 -2.52942,-0.46106 0.66618,-0.26883 0.977,-2.24407 0.95411,-6.06353 l -0.0339,-5.66485 -2.44774,5.73072 c -1.34625,3.1519 -2.68834,5.73073 -2.98242,5.73073 -0.29409,0 -1.63316,-2.40098 -2.97573,-5.33551 l -2.44104,-5.3355 -0.0757,4.78219 c -0.0438,2.76477 0.32446,5.18232 0.87284,5.73073 0.73775,0.73772 0.43914,0.94853 -1.34375,0.94853 -1.7829,0 -2.0815,-0.21081 -1.34376,-0.94853 1.24932,-1.2493 1.24932,-11.08162 0,-12.33094 -0.73774,-0.73774 -0.37832,-0.94853 1.6174,-0.94853 2.38143,0 2.72236,0.35031 4.7414,4.87187 l 2.17547,4.87186 2.11286,-4.87186 c 1.96317,-4.5266 2.29377,-4.87187 4.66492,-4.87187 1.98491,0 2.34123,0.21079 1.60349,0.94853 -0.54613,0.54613 -0.94854,3.16178 -0.94854,6.16547 0,3.00368 0.40241,5.61935 0.94854,6.16547 0.73774,0.73772 0.16687,0.9347 -2.56895,0.88608 z m -21.69618,-11.00377 c -0.28031,0 -1.06212,-0.55248 -1.73737,-1.22774 -2.06926,-2.06925 -4.5504,-1.13507 -4.83538,1.82057 -0.27846,2.88814 1.53495,3.61676 2.95093,1.18566 0.63493,-1.0901 0.81079,-0.63399 0.82973,2.152 0.0232,3.42283 -0.0151,3.47939 -1.20645,1.7785 -1.76103,-2.51422 -2.72174,-2.17165 -2.72174,0.9705 0,1.76356 0.48882,3.01199 1.38328,3.53297 1.06769,0.62184 0.4816,0.79693 -2.56894,0.76729 -2.17372,-0.0213 -3.5076,-0.21777 -2.96417,-0.43704 1.34764,-0.54375 1.34842,-11.44706 7.9e-4,-12.79455 -0.78921,-0.78922 0.19963,-0.93978 4.93189,-0.75093 4.89686,0.19542 5.96461,0.47509 6.18298,1.61949 0.14517,0.7608 0.0346,1.38328 -0.24569,1.38328 z m -13.57273,6.32355 c -0.83011,2.12685 -3.66614,4.74267 -5.14199,4.74267 -1.35125,0 -1.34248,-0.10062 0.13778,-1.58089 1.74184,-1.74182 2.12359,-6.37413 0.81001,-9.8291 -0.94849,-2.4947 -4.29496,-2.79674 -5.52486,-0.49864 -1.43305,2.67767 -0.99817,8.56695 0.76263,10.32774 1.42754,1.42754 1.44671,1.57844 0.19761,1.55575 -2.90343,-0.053 -5.73072,-3.74944 -5.73072,-7.49292 0,-3.13721 3.94247,-6.70994 7.40434,-6.70994 4.76623,0 8.72092,5.29435 7.0852,9.48533 z m -16.59946,1.39988 c -0.73343,1.82292 -4.85974,3.34279 -9.07513,3.34279 -3.22744,0 -3.93877,-0.21081 -3.20103,-0.94853 0.54613,-0.54612 0.94854,-3.16179 0.94854,-6.16547 0,-3.00369 -0.40241,-5.61934 -0.94854,-6.16547 -0.73774,-0.73774 -0.14917,-0.94853 2.64861,-0.94853 4.51566,0 8.3773,1.31411 9.38283,3.19295 0.80481,1.5038 0.94622,5.94877 0.24472,7.69226 z m -3.54151,-7.18256 c -1.02877,-1.95451 -2.19223,-2.88241 -3.63628,-2.9001 -0.70982,-0.009 -0.98806,1.78411 -0.98806,6.36642 0,6.14219 0.0651,6.36921 1.75872,6.12591 3.1348,-0.45016 4.77961,-5.95595 2.86562,-9.59223 z m -20.43322,10.40054 c -1.95635,0 -3.11237,-0.17943 -2.56894,-0.3987 0.65678,-0.26504 0.98805,-2.23174 0.98805,-5.86592 0,-3.83189 -0.29554,-5.47562 -0.98805,-5.49525 -0.99047,-0.0281 2.44249,-2.26266 3.557,-2.31531 0.32606,-0.0154 0.59283,2.9658 0.59283,6.6249 0,4.58271 0.30745,6.77698 0.98806,7.05158 0.54343,0.21927 -0.6126,0.3987 -2.56895,0.3987 z m -46.97346,-441.7334 c -0.73325,0 -1.24362,-0.67583 -1.24362,-1.64675 0,-1.92635 1.84708,-1.65406 2.23167,0.32898 0.15127,0.77998 -0.25196,1.31777 -0.98805,1.31777 z m -3.64482,8.71087 c -3.45601,1.8496 -6.82382,-1.33597 -5.89298,-5.57408 0.50246,-2.2877 4.42469,-6.29856 6.15937,-6.29856 0.49812,0 0.14235,0.53465 -0.7906,1.18811 -2.05868,1.44195 -3.70939,6.07136 -2.98203,8.36306 0.41757,1.31563 1.01882,1.59988 2.82376,1.33497 2.71131,-0.39793 2.86208,-0.17999 0.68248,0.9865 z m -16.84169,273.0422 c -3.25611,2.48355 -3.31629,2.48338 -6.929849,-0.0208 l -2.93961,-2.03716 2.89712,-6.319 c 1.59342,-3.47545 3.2136,-6.3152 3.600399,-6.31054 0.5367,0.006 6.0155,11.34391 6.0155,12.44806 0,0.1227 -1.1896,1.13044 -2.64356,2.23943 z m -0.8436,-49.75775 c -0.57967,1.30423 -2.05171,3.26058 -3.271199,4.34744 l -2.21725,1.97611 1.67419,-2.42727 c 2.355539,-3.41509 3.605519,-9.07236 3.177669,-14.38174 -0.34316,-4.25839 -0.3033,-4.38933 0.65791,-2.16165 1.32888,3.07977 1.31783,9.63408 -0.0213,12.64711 z m -6.913799,-8.11744 c -0.677,0.25979 -1.44215,1.52852 -1.70032,2.8194 -0.25818,1.29088 -0.71634,3.33085 -1.01812,4.53328 -0.42243,1.68306 -0.31215,2.04002 0.47914,1.55097 0.67798,-0.41901 0.83587,-0.32461 0.46386,0.27732 -0.3102,0.50192 -1.27838,0.91258 -2.15151,0.91258 -1.13787,0 -1.47381,-0.39179 -1.18606,-1.38328 1.47113,-5.0692 2.11807,-8.32388 1.73143,-8.71053 -0.55335,-0.55335 1.88626,-3.34374 2.9234,-3.34374 0.41388,0 0.55658,0.51057 0.31712,1.1346 -0.23947,0.62403 -0.0287,1.27014 0.4683,1.43582 0.5477,0.18257 0.4188,0.48729 -0.32724,0.77358 z m -8.13115,-4.96084 c -2.10371,1.74592 -3.79625,8.54623 -3.45621,13.8864 0.36754,5.77208 -0.43655,6.04107 -1.61618,0.54066 -0.80974,-3.77569 -0.32777,-7.87539 1.27587,-10.85271 0.88284,-1.63908 4.93886,-5.71134 4.93886,-4.95864 0,0.23993 -0.51405,0.86285 -1.14234,1.38429 z m -9.91105,5.40821 c -2.59304,1.48041 -2.58708,2.49284 0.0417,7.07724 1.45022,2.5291 1.4488,2.56894 -0.0911,2.56894 -1.14189,0 -2.09997,-1.21147 -3.54865,-4.48722 -2.13158,-4.81986 -2.89027,-4.84389 -4.161573,-0.13179 -0.542395,2.01039 -0.516634,3.15335 0.08463,3.75461 0.625565,0.62557 0.0016,0.86105 -2.257856,0.8523 -1.71724,-0.006 -2.718969,-0.27343 -2.226064,-0.59284 0.996876,-0.64598 4.241696,-11.55942 4.241696,-14.26631 0,-1.55977 0.408012,-1.72808 4.189354,-1.72808 4.58924,0 6.08642,0.92291 6.08642,3.75185 0,1.23082 -0.79343,2.30777 -2.35851,3.2013 z m -0.96135,-5.21417 c -1.56078,-1.56077 -3.58747,-1.08916 -4.1003,0.95415 -0.26265,1.04647 -0.69497,2.46926 -0.9607,3.16177 -0.358384,0.93394 -0.002,1.25598 1.37991,1.247 2.20185,-0.0143 3.43378,-0.73132 4.05346,-2.35923 0.6787,-1.78293 0.65469,-1.97662 -0.37237,-3.00369 z"
       id="path4174"
       inkscape:connector-curvature="0" />
  </g>
</svg>
